<?xml version="1.0" encoding="UTF-8"?>
<svg id="Layer_1" data-name="Layer 1" xmlns="http://www.w3.org/2000/svg" viewBox="0 0 100 100">
  <defs>
    <style>
      .cls-1 {
        fill: #764abc;
      }

      .cls-2 {
        fill: #e8e8e8;
      }
    </style>
  </defs>
  <rect class="cls-2" width="100" height="100" rx="10" ry="10"/>
  <path class="cls-1" d="m67.26,66.852c3.302-.342,5.807-3.188,5.693-6.604-.114-3.416-2.96-6.149-6.376-6.149h-.228c-3.53.114-6.263,3.074-6.149,6.604.114,1.708.797,3.188,1.822,4.213-3.871,7.629-9.792,13.209-18.673,17.877-6.035,3.188-12.297,4.327-18.559,3.53-5.124-.683-9.109-2.96-11.614-6.718-3.643-5.579-3.985-11.614-.91-17.649,2.164-4.327,5.579-7.515,7.743-9.109-.455-1.48-1.139-3.985-1.48-5.807-16.51,11.956-14.802,28.125-9.792,35.754,3.757,5.694,11.386,9.223,19.812,9.223,2.277,0,4.554-.228,6.832-.797,14.575-2.847,25.619-11.501,31.882-24.368h0Zm20.04-14.119c-8.654-10.134-21.406-15.714-35.981-15.714h-1.822c-1.025-2.05-3.188-3.416-5.579-3.416h-.228c-3.529.114-6.262,3.074-6.148,6.604.114,3.416,2.96,6.149,6.376,6.149h.228c2.505-.114,4.669-1.708,5.579-3.872h2.05c8.654,0,16.852,2.505,24.253,7.401,5.693,3.758,9.792,8.654,12.069,14.575,1.936,4.782,1.822,9.451-.228,13.437-3.188,6.035-8.539,9.337-15.599,9.337-4.555,0-8.881-1.367-11.159-2.391-1.252,1.139-3.53,2.96-5.124,4.099,4.896,2.277,9.906,3.53,14.688,3.53,10.931,0,19.015-6.035,22.09-12.07,3.302-6.604,3.074-17.991-5.465-27.67h0Zm-57.842,16.055c.114,3.416,2.96,6.149,6.376,6.149h.228c3.53-.114,6.262-3.074,6.148-6.604-.114-3.416-2.96-6.149-6.376-6.149h-.228c-.228,0-.57,0-.797.114-4.669-7.743-6.604-16.169-5.921-25.278.455-6.832,2.733-12.753,6.718-17.65,3.302-4.213,9.678-6.263,14.005-6.376,12.069-.228,17.193,14.802,17.535,20.838,1.48.341,3.985,1.139,5.693,1.708-1.367-18.446-12.753-28.011-23.683-28.011-10.248,0-19.698,7.401-23.456,18.333-5.238,14.575-1.822,28.58,4.555,39.626-.569.797-.911,2.05-.797,3.302h0Z"/>
</svg>