<?xml version="1.0" encoding="UTF-8"?>
<svg id="Layer_1" data-name="Layer 1" xmlns="http://www.w3.org/2000/svg" viewBox="0 0 100 100">
  <defs>
    <style>
      .cls-1 {
        fill: #ca3132;
      }

      .cls-1, .cls-2 {
        fill-rule: evenodd;
      }

      .cls-3 {
        fill: #f9f9f9;
      }

      .cls-2 {
        fill: #3174b9;
      }
    </style>
  </defs>
  <rect class="cls-3" width="100" height="100" rx="10" ry="10"/>
  <g>
    <path class="cls-2" d="m38.822,73.278s-3.253,1.893,2.317,2.532c6.749.771,10.197.66,17.632-.747,0,0,1.958,1.226,4.69,2.286-16.673,7.144-37.734-.413-24.64-4.071Zm-2.038-9.323s-3.649,2.701,1.926,3.277c7.21.745,12.901.805,22.756-1.091,0,0,1.361,1.381,3.502,2.136-20.156,5.895-42.604.464-28.183-4.322Z"/>
    <path class="cls-1" d="m53.958,48.138c4.11,4.731-1.077,8.986-1.077,8.986,0,0,10.432-5.384,5.64-12.128-4.473-6.287-7.905-9.41,10.669-20.181,0,0-29.155,7.279-15.232,23.323Z"/>
    <path class="cls-2" d="m76.009,80.175s2.408,1.985-2.652,3.52c-9.621,2.914-40.052,3.793-48.505.116-3.036-1.322,2.661-3.156,4.453-3.543,1.869-.404,2.936-.331,2.936-.331-3.379-2.379-21.841,4.673-9.376,6.697,33.989,5.511,61.959-2.481,53.144-6.459h0Zm-35.622-25.88s-15.477,3.677-5.48,5.014c4.222.564,12.634.434,20.475-.223,6.406-.538,12.836-1.688,12.836-1.688,0,0-2.257.969-3.893,2.083-15.719,4.135-46.081,2.209-37.34-2.018,7.391-3.575,13.401-3.168,13.401-3.168h0Zm27.767,15.519c15.978-8.301,8.591-16.28,3.433-15.204-1.261.264-1.827.491-1.827.491,0,0,.471-.736,1.365-1.053,10.202-3.585,18.046,10.577-3.289,16.186,0,0,.245-.222.319-.42Z"/>
    <path class="cls-1" d="m58.521,7.419s8.847,8.853-8.393,22.461c-13.826,10.92-3.152,17.145-.004,24.26-8.072-7.281-13.993-13.693-10.021-19.658,5.831-8.757,21.988-13.003,18.419-27.063h0Z"/>
    <path class="cls-2" d="m41.959,92.314c15.334.981,38.887-.545,39.446-7.802,0,0-1.072,2.751-12.675,4.933-13.09,2.464-29.237,2.177-38.811.597,0,0,1.962,1.623,12.04,2.272Z"/>
  </g>
</svg>