<?xml version="1.0" encoding="UTF-8"?>
<svg id="Layer_1" data-name="Layer 1" xmlns="http://www.w3.org/2000/svg" xmlns:xlink="http://www.w3.org/1999/xlink" viewBox="0 0 100 100">
  <defs>
    <style>
      .cls-1 {
        fill: #1f9cf0;
      }

      .cls-2 {
        fill: #fff;
      }

      .cls-2, .cls-3 {
        fill-rule: evenodd;
      }

      .cls-3 {
        fill: url(#linear-gradient);
      }

      .cls-4 {
        fill: #007acc;
      }

      .cls-5 {
        fill: #0065a9;
      }

      .cls-6 {
        fill: #e8e8e8;
      }

      .cls-7 {
        mask: url(#mask);
      }

      .cls-8 {
        opacity: .25;
      }
    </style>
    <mask id="mask" x="-.03" y=".258" width="100.061" height="99.485" maskUnits="userSpaceOnUse">
      <g id="mask0">
        <path class="cls-2" d="m70.942,99.317c1.575.614,3.371.574,4.961-.191l20.588-9.907c2.163-1.041,3.539-3.231,3.539-5.633V16.413c0-2.402-1.376-4.591-3.539-5.632L75.903.874c-2.086-1.004-4.528-.758-6.359.573-.261.19-.511.402-.744.636L29.385,38.041l-17.168-13.032c-1.598-1.213-3.834-1.114-5.318.236l-5.506,5.009c-1.816,1.652-1.818,4.508-.004,6.162l14.889,13.583L1.389,63.583c-1.813,1.654-1.811,4.511.004,6.162l5.506,5.009c1.484,1.35,3.72,1.45,5.318.236l17.168-13.032,39.414,35.958c.624.624,1.356,1.094,2.143,1.4Zm4.103-72.018l-29.906,22.701,29.906,22.701V27.299Z"/>
      </g>
    </mask>
    <linearGradient id="linear-gradient" x1="49.97" y1="99.742" x2="49.97" y2=".258" gradientTransform="translate(0 100) scale(1 -1)" gradientUnits="userSpaceOnUse">
      <stop offset="0" stop-color="#fff"/>
      <stop offset="1" stop-color="#fff" stop-opacity="0"/>
    </linearGradient>
  </defs>
  <rect class="cls-6" width="100" height="100" rx="10" ry="10"/>
  <g class="cls-7">
    <g>
      <path class="cls-5" d="m96.492,10.796L75.887.875c-2.385-1.148-5.235-.664-7.107,1.208L1.329,63.583c-1.814,1.654-1.812,4.51.004,6.162l5.51,5.009c1.485,1.35,3.722,1.45,5.321.237L93.391,13.37c2.725-2.067,6.639-.124,6.639,3.297v-.239c0-2.401-1.375-4.59-3.539-5.631Z"/>
      <path class="cls-4" d="m96.492,89.204l-20.604,9.921c-2.385,1.149-5.235.664-7.107-1.208L1.329,36.417c-1.814-1.654-1.812-4.511.004-6.162l5.51-5.009c1.485-1.35,3.722-1.45,5.321-.236l81.227,61.621c2.725,2.067,6.639.124,6.639-3.297v.239c0,2.401-1.375,4.59-3.539,5.631Z"/>
      <path class="cls-1" d="m75.888,99.126c-2.386,1.148-5.236.662-7.108-1.21,2.306,2.306,6.25.673,6.25-2.589V4.672c0-3.262-3.944-4.895-6.25-2.589,1.872-1.872,4.722-2.357,7.108-1.21l20.601,9.907c2.165,1.041,3.541,3.231,3.541,5.633v67.174c0,2.402-1.377,4.591-3.541,5.632l-20.601,9.907Z"/>
      <g class="cls-8">
        <path class="cls-3" d="m70.881,99.317c1.575.614,3.371.574,4.961-.191l20.588-9.907c2.163-1.041,3.539-3.231,3.539-5.633V16.413c0-2.402-1.376-4.592-3.539-5.633L75.842.874c-2.086-1.004-4.528-.758-6.359.573-.261.19-.511.402-.744.636L29.325,38.041l-17.168-13.032c-1.598-1.213-3.834-1.114-5.318.236l-5.506,5.009c-1.816,1.652-1.818,4.508-.005,6.162l14.889,13.583L1.328,63.583c-1.813,1.654-1.811,4.51.005,6.162l5.506,5.009c1.484,1.35,3.72,1.45,5.318.237l17.168-13.032,39.414,35.958c.624.624,1.356,1.094,2.143,1.4Zm4.103-72.018l-29.906,22.701,29.906,22.701V27.299Z"/>
      </g>
    </g>
  </g>
</svg>