<?xml version="1.0" encoding="UTF-8"?>
<svg id="Layer_1" data-name="Layer 1" xmlns="http://www.w3.org/2000/svg" viewBox="0 0 100 100">
  <defs>
    <style>
      .cls-1 {
        fill: #00d8ff;
      }

      .cls-2 {
        fill: #222;
      }

      .cls-3 {
        fill: none;
        stroke: #00d8ff;
        stroke-miterlimit: 10;
        stroke-width: 4px;
      }
    </style>
  </defs>
  <rect class="cls-2" width="100" height="100" rx="10" ry="10"/>
  <g>
    <circle class="cls-1" cx="50.001" cy="49.921" r="8.362"/>
    <path class="cls-3" d="m50.001,32.92c11.225,0,21.655,1.611,29.517,4.317,9.473,3.261,15.299,8.205,15.299,12.682,0,4.665-6.174,9.918-16.346,13.287-7.691,2.548-17.814,3.88-28.47,3.88-10.927,0-21.271-1.249-29.05-3.908-9.841-3.363-15.769-8.683-15.769-13.259,0-4.441,5.563-9.346,14.904-12.602,7.893-2.75,18.579-4.397,29.915-4.397h0Z"/>
    <path class="cls-3" d="m35.203,41.47c5.607-9.725,12.215-17.954,18.488-23.412,7.558-6.577,14.752-9.153,18.629-6.917,4.04,2.33,5.508,10.302,3.344,20.801-1.636,7.937-5.538,17.369-10.863,26.601-5.458,9.465-11.709,17.802-17.896,23.213-7.829,6.845-15.401,9.321-19.364,7.036-3.847-2.219-5.317-9.487-3.474-19.206,1.559-8.219,5.472-18.297,11.137-28.116h0Z"/>
    <path class="cls-3" d="m35.217,58.563c-5.624-9.716-9.454-19.549-11.051-27.71-1.923-9.833-.564-17.352,3.311-19.593,4.037-2.338,11.676.373,19.69,7.489,6.06,5.381,12.281,13.472,17.62,22.697,5.474,9.457,9.578,19.035,11.173,27.096,2.02,10.203.384,17.999-3.576,20.29-3.844,2.225-10.874-.13-18.375-6.583-6.334-5.452-13.113-13.876-18.792-23.686h0Z"/>
  </g>
</svg>